HIERARCHY
ROOT Hips
{
 OFFSET 0.000000 0.000000 0.000000
 CHANNELS 6 Xposition Yposition Zposition Yrotation Xrotation Zrotation
 JOINT Chest
 {
  OFFSET 0.000000 9.581000 -0.001100
  CHANNELS 3 Yrotation Xrotation Zrotation
  JOINT Chest2
  {
   OFFSET 0.000000 9.561100 0.002200
   CHANNELS 3 Yrotation Xrotation Zrotation
   JOINT Chest3
   {
    OFFSET 0.000000 9.521100 0.000000
    CHANNELS 3 Yrotation Xrotation Zrotation
    JOINT Chest4
    {
     OFFSET 0.000000 9.511400 0.000000
     CHANNELS 3 Yrotation Xrotation Zrotation
     JOINT Neck
     {
      OFFSET 0.000000 14.375100 0.000000
      CHANNELS 3 Yrotation Xrotation Zrotation
      JOINT Head
      {
       OFFSET 0.000000 8.901200 0.004600
       CHANNELS 3 Yrotation Xrotation Zrotation
       End Site
       {
        OFFSET 0.000000 16.962200 0.002400
       }
      }
     }
     JOINT RightCollar
     {
      OFFSET -2.920100 9.518800 0.000000
      CHANNELS 3 Yrotation Xrotation Zrotation
      JOINT RightShoulder
      {
       OFFSET -13.664500 0.000000 0.000000
       CHANNELS 3 Yrotation Xrotation Zrotation
       JOINT RightElbow
       {
        OFFSET 0.000000 -29.999200 0.000000
        CHANNELS 3 Yrotation Xrotation Zrotation
        JOINT RightWrist
        {
         OFFSET 0.000000 -24.253600 0.000000
         CHANNELS 3 Yrotation Xrotation Zrotation
         End Site
         {
          OFFSET 0.000000 -17.918900 0.000000
         }
        }
       }
      }
     }
     JOINT LeftCollar
     {
      OFFSET 2.920100 9.518800 0.000000
      CHANNELS 3 Yrotation Xrotation Zrotation
      JOINT LeftShoulder
      {
       OFFSET 13.664500 0.000000 0.000000
       CHANNELS 3 Yrotation Xrotation Zrotation
       JOINT LeftElbow
       {
        OFFSET 0.000000 -29.999200 0.000000
        CHANNELS 3 Yrotation Xrotation Zrotation
        JOINT LeftWrist
        {
         OFFSET 0.000000 -24.253600 0.000000
         CHANNELS 3 Yrotation Xrotation Zrotation
         End Site
         {
          OFFSET 0.000000 -17.918900 0.000000
         }
        }
       }
      }
     }
    }
   }
  }
 }
 JOINT RightHip
 {
  OFFSET -7.797300 0.005300 0.000500
  CHANNELS 3 Yrotation Xrotation Zrotation
  JOINT RightKnee
  {
   OFFSET 0.000000 -40.663400 -0.000500
   CHANNELS 3 Yrotation Xrotation Zrotation
   JOINT RightAnkle
   {
    OFFSET 0.000000 -39.523700 -0.000900
    CHANNELS 3 Yrotation Xrotation Zrotation
    JOINT RightToe
    {
     OFFSET 0.000000 -6.418000 14.485300
     CHANNELS 3 Yrotation Xrotation Zrotation
     End Site
     {
      OFFSET 0.000000 -1.465200 6.326400
     }
    }
   }
  }
 }
 JOINT LeftHip
 {
  OFFSET 7.797300 0.005300 0.000500
  CHANNELS 3 Yrotation Xrotation Zrotation
  JOINT LeftKnee
  {
   OFFSET 0.000000 -40.663400 -0.000500
   CHANNELS 3 Yrotation Xrotation Zrotation
   JOINT LeftAnkle
   {
    OFFSET 0.000000 -39.523700 -0.000900
    CHANNELS 3 Yrotation Xrotation Zrotation
    JOINT LeftToe
    {
     OFFSET 0.000000 -6.418000 14.485300
     CHANNELS 3 Yrotation Xrotation Zrotation
     End Site
     {
      OFFSET 0.000000 -1.465200 6.326400
     }
    }
   }
  }
 }
}
MOTION
Frames: 8
Frame Time: 0.008333
-13.304828 126.912431 33.426533 -160.415121 -50.379990 -2.946348 -4.109213 26.273676 -1.548283 -0.630836 4.436197 -0.121374 -1.012857 7.035760 -0.216294 -3.270219 21.533293 -1.100928 0.163527 17.578629 -0.576064 0.278913 -7.274766 -0.622154 2.223923 3.298764 2.408103 2.104065 -8.371313 -8.537456 -91.282109 -67.079685 138.703804 3.124228 15.671028 -10.275091 -9.693539 -1.115262 -1.809460 -6.823921 -10.786311 11.423912 51.667626 -56.058681 -97.286517 6.555426 -1.801486 5.058944 -6.608247 -22.720986 -11.142055 -9.986115 78.752506 -11.311608 10.057571 -15.507016 3.347598 0.000486 -0.002914 0.000215 4.508302 5.958760 -1.703823 128.759674 65.074724 147.209369 10.674157 10.270249 3.559957 0.002552 -0.007899 0.001131
-13.304279 126.913049 33.425671 -160.421116 -50.380975 -2.941805 -4.089323 26.288741 -1.542904 -0.642284 4.426108 -0.119294 -1.000799 7.051296 -0.217019 -3.260377 21.539439 -1.100591 0.147272 17.498795 -0.592591 0.263372 -7.364685 -0.631578 2.209280 3.264664 2.395275 2.123004 -8.337792 -8.519452 -91.261543 -67.097909 138.685114 3.117779 15.642109 -10.320500 -9.725277 -1.140621 -1.786649 -6.798083 -10.768654 11.410730 51.616929 -56.046450 -97.194908 6.558379 -1.819063 5.024221 -6.605942 -22.722391 -11.139920 -10.003176 78.753771 -11.327054 10.048099 -15.508551 3.346317 -0.001658 -0.002724 -0.000735 4.509547 5.958475 -1.701635 128.756895 65.074114 147.205408 10.681950 10.290482 3.523276 0.002755 -0.000517 0.001220
-13.304807 126.913085 33.425431 -160.412540 -50.376341 -2.941611 -4.089937 26.291328 -1.547853 -0.630303 4.436508 -0.120573 -0.997858 7.056138 -0.217187 -3.250350 21.546416 -1.099843 0.127918 17.413549 -0.601829 0.249595 -7.456862 -0.642784 2.198083 3.224881 2.307115 2.175040 -8.302693 -8.431388 -91.230345 -67.149948 138.658236 3.096078 15.564237 -10.410176 -9.772441 -1.155058 -1.749235 -6.759469 -10.753686 11.390757 51.614620 -56.052205 -97.180103 6.571315 -1.823509 5.010510 -6.610227 -22.729318 -11.144424 -9.971415 78.760525 -11.294324 10.023140 -15.513442 3.344431 -0.003557 -0.002191 -0.001576 4.504036 5.952320 -1.705418 128.765423 65.073906 147.208681 10.679009 10.285543 3.540511 0.002202 -0.001888 0.000975
-13.304515 126.913226 33.424678 -160.408495 -50.371373 -2.943975 -4.086182 26.293836 -1.546845 -0.611881 4.463202 -0.123944 -1.005470 7.045023 -0.213525 -3.240399 21.553456 -1.096516 0.109707 17.323700 -0.616246 0.237961 -7.551850 -0.656416 2.181064 3.185262 2.272328 2.219966 -8.291105 -8.404614 -91.235358 -67.185669 138.661783 3.055141 15.530805 -10.500333 -9.812227 -1.174306 -1.725465 -6.733915 -10.751993 11.383417 51.605708 -56.048767 -97.155980 6.586884 -1.826031 5.007728 -6.614049 -22.735212 -11.145324 -9.930379 78.766568 -11.254035 10.029336 -15.520899 3.341411 -0.001751 -0.002077 -0.000776 4.500820 5.947392 -1.703035 128.770796 65.075065 147.207193 10.675980 10.280049 3.562912 0.000644 -0.005440 0.000285
-13.303962 126.913728 33.423360 -160.408702 -50.368029 -2.945896 -4.073982 26.303798 -1.541712 -0.617067 4.458763 -0.122271 -0.997181 7.056361 -0.215561 -3.219361 21.585987 -1.095189 0.082414 17.207535 -0.624766 0.227765 -7.650335 -0.673436 2.156812 3.119052 2.250733 2.274725 -8.280800 -8.395121 -91.265259 -67.226429 138.689736 3.005805 15.497391 -10.612761 -9.861259 -1.216791 -1.692140 -6.690223 -10.736720 11.370729 51.610520 -56.062766 -97.178369 6.623821 -1.829815 5.021372 -6.616482 -22.738744 -11.145078 -9.898030 78.770184 -11.225136 10.058411 -15.529193 3.337814 0.001085 -0.002706 0.000481 4.498739 5.945217 -1.701928 128.770098 65.073489 147.205058 10.688614 10.297991 3.522820 -0.000726 -0.000871 -0.000321
-13.303808 126.913747 33.422373 -160.411066 -50.360157 -2.943234 -4.060021 26.327971 -1.531627 -0.625669 4.435811 -0.126950 -0.985090 7.089999 -0.211277 -3.225032 21.567918 -1.092025 0.069516 17.114571 -0.647995 0.219435 -7.750978 -0.694594 2.151050 3.077651 2.223760 2.340406 -8.273181 -8.402355 -91.312564 -67.266754 138.733242 2.954136 15.458327 -10.739631 -9.887193 -1.236163 -1.674142 -6.632066 -10.694407 11.346656 51.628101 -56.091878 -97.202037 6.622726 -1.832589 4.985741 -6.617681 -22.747109 -11.143825 -9.889768 78.773778 -11.217784 10.061542 -15.544202 3.331395 0.000505 -0.004585 0.000224 4.499246 5.937387 -1.703875 128.768292 65.072427 147.203978 10.696500 10.312484 3.494819 -0.001103 0.000455 -0.000489
-13.304522 126.913464 33.421777 -160.411000 -50.348737 -2.936842 -4.058601 26.332081 -1.531243 -0.624972 4.438974 -0.125372 -0.985624 7.090081 -0.212755 -3.223888 21.570466 -1.091718 0.058488 17.020235 -0.672636 0.213369 -7.852787 -0.717650 2.144908 3.041451 2.205957 2.395948 -8.268413 -8.415558 -91.364295 -67.312792 138.800269 2.948852 15.423983 -10.893226 -9.909994 -1.253083 -1.654733 -6.589274 -10.659908 11.322933 51.640740 -56.119406 -97.213598 6.620236 -1.839710 4.954522 -6.618173 -22.762203 -11.150835 -9.901307 78.780337 -11.229198 10.075767 -15.550838 3.325753 0.001843 -0.004453 0.000817 4.498560 5.925619 -1.710226 128.766436 65.071032 147.203178 10.695485 10.319281 3.482329 -0.000609 -0.000193 -0.000270
-13.305130 126.911941 33.422149 -160.408808 -50.326444 -2.930959 -4.059215 26.325517 -1.533021 -0.619957 4.456304 -0.121339 -0.993470 7.066027 -0.216471 -3.221612 21.577154 -1.090970 0.050032 16.928994 -0.697450 0.208889 -7.955454 -0.741260 2.139880 3.020307 2.200387 2.415395 -8.266840 -8.421121 -91.399478 -67.356982 138.874085 2.899093 15.395871 -10.968873 -9.930289 -1.264276 -1.634011 -6.551899 -10.627570 11.298531 51.663966 -56.153823 -97.223476 6.631609 -1.841990 4.921832 -6.619494 -22.788287 -11.153081 -9.918088 78.787580 -11.248124 10.065024 -15.557049 3.326646 -0.000354 -0.002825 -0.000157 4.494262 5.901923 -1.720265 128.772053 65.066508 147.211207 10.708250 10.335013 3.436750 0.001121 0.005984 0.000497
